#define close_width 12
#define close_height 12
static unsigned char close_bits[] = {
   0x00, 0x00, 0xf0, 0x0f, 0xf0, 0x0f, 0x10, 0x08,
   0x10, 0x08, 0xfe, 0x09, 0xfe, 0x09, 0x02, 0x0f,
   0x02, 0x01, 0x02, 0x01, 0x02, 0x01, 0xfe, 0x01};
